# xmcd
#
# Track frame offsets:
#	150
#	13019
#	27091
#	42653
#	57339
#	75384
#	93311
#	108127
#	123517
#	136790
#	150037
#	165458
#
# Disc length: 2362 seconds
#
# Revision: 0
# Processed by: cddbd v1.5.2PL0 Copyright (c) Steve Scherf et al.
# Submitted via: EasyCDDAExtractor 2010.6.0.0
#
DISCID=8109380c
DTITLE=Anita Moreno - No Es Lo Que Tú Te Imaginas
DYEAR=2004
DGENRE=Ranchera
TTITLE0=No Es Lo Que Tú Te Imaginas
TTITLE1=Quiéreme Ahora
TTITLE2=Te Quedó Grande La Yegua
TTITLE3=Échame A Mi La Culpa
TTITLE4=Perdóname Senor
TTITLE5=Mi Destino Fue Quererte
TTITLE6=Azul Celeste
TTITLE7=La Cabalgata
TTITLE8=La Palma
TTITLE9=No Me Duele Que Te Vayas
TTITLE10=No Soy Monedita De Oro
TTITLE11=Porque Será
EXTD=
EXTT0=
EXTT1=
EXTT2=
EXTT3=
EXTT4=
EXTT5=
EXTT6=
EXTT7=
EXTT8=
EXTT9=
EXTT10=
EXTT11=
PLAYORDER=
